{
	"accessors" : 
	[
		{
			"bufferView" : 2,
			"byteOffset" : 0,
			"componentType" : 5126,
			"count" : 1608,
			"max" : 
			[
				1,
				1,
				1,
				1
			],
			"min" : 
			[
				1,
				1,
				1,
				1
			],
			"name" : "accessor_color_m0-PolyGlass24_-133484",
			"type" : "VEC4"
		},
		{
			"bufferView" : 2,
			"byteOffset" : 25728,
			"componentType" : 5126,
			"count" : 5538,
			"max" : 
			[
				1,
				1,
				1,
				1
			],
			"min" : 
			[
				0,
				0.006584956776350737,
				0.006584956776350737,
				1
			],
			"name" : "accessor_color_m1-PolyPaper21_-133490",
			"type" : "VEC4"
		},
		{
			"bufferView" : 0,
			"byteOffset" : 0,
			"componentType" : 5123,
			"count" : 2214,
			"max" : 
			[
				1607
			],
			"min" : 
			[
				0
			],
			"name" : "accessor_indices_0_m0-PolyGlass24_-133484",
			"type" : "SCALAR"
		},
		{
			"bufferView" : 0,
			"byteOffset" : 4428,
			"componentType" : 5123,
			"count" : 8784,
			"max" : 
			[
				5537
			],
			"min" : 
			[
				0
			],
			"name" : "accessor_indices_0_m1-PolyPaper21_-133490",
			"type" : "SCALAR"
		},
		{
			"bufferView" : 1,
			"byteOffset" : 19296,
			"componentType" : 5126,
			"count" : 1608,
			"max" : 
			[
				0.9973266,
				0.9992196,
				0.9951846
			],
			"min" : 
			[
				-0.9984779,
				-0.9974381,
				-0.9952798
			],
			"name" : "accessor_normal_m0-PolyGlass24_-133484",
			"type" : "VEC3"
		},
		{
			"bufferView" : 1,
			"byteOffset" : 105048,
			"componentType" : 5126,
			"count" : 5538,
			"max" : 
			[
				0.9998643,
				0.9982908,
				0.9987617
			],
			"min" : 
			[
				-0.9995211000000001,
				-0.9982908,
				-0.9991506
			],
			"name" : "accessor_normal_m1-PolyPaper21_-133490",
			"type" : "VEC3"
		},
		{
			"bufferView" : 1,
			"byteOffset" : 0,
			"componentType" : 5126,
			"count" : 1608,
			"max" : 
			[
				-0.3564368,
				1.992838,
				1.839365
			],
			"min" : 
			[
				-0.8900934,
				1.133954,
				0.9448601
			],
			"name" : "accessor_position_m0-PolyGlass24_-133484",
			"type" : "VEC3"
		},
		{
			"bufferView" : 1,
			"byteOffset" : 38592,
			"componentType" : 5126,
			"count" : 5538,
			"max" : 
			[
				0.01293627,
				1.712219,
				2.148988
			],
			"min" : 
			[
				-1.111634,
				0.1257762,
				0.1765732
			],
			"name" : "accessor_position_m1-PolyPaper21_-133490",
			"type" : "VEC3"
		}
	],
	"asset" : 
	{
		"copyright" : "Unknown",
		"generator" : "glTF 1-to-2 Upgrader for Google Blocks",
		"version" : "2.0"
	},
	"bufferViews" : 
	[
		{
			"buffer" : 0,
			"byteLength" : 21996,
			"byteOffset" : 0,
			"name" : "ushortBufferView",
			"target" : 34963
		},
		{
			"buffer" : 0,
			"byteLength" : 171504,
			"byteOffset" : 21996,
			"byteStride" : 12,
			"name" : "vec3BufferView",
			"target" : 34962
		},
		{
			"buffer" : 0,
			"byteLength" : 114336,
			"byteOffset" : 193500,
			"byteStride" : 16,
			"name" : "vec4BufferView",
			"target" : 34962
		}
	],
	"buffers" : 
	[
		{
			"byteLength" : 307836,
			"name" : "model",
			"uri" : "model.bin"
		}
	],
	"materials" : 
	[
		{
			"alphaMode" : "OPAQUE",
			"doubleSided" : false,
			"name" : "BlocksPaper",
			"pbrMetallicRoughness" : 
			{
				"baseColorFactor" : 
				[
					1,
					1,
					1,
					1
				],
				"metallicFactor" : 0,
				"roughnessFactor" : 0.6
			}
		},
		{
			"alphaMode" : "BLEND",
			"doubleSided" : false,
			"name" : "BlocksGlass",
			"pbrMetallicRoughness" : 
			{
				"baseColorFactor" : 
				[
					0.2,
					0.2,
					1,
					0.3
				],
				"metallicFactor" : 1,
				"roughnessFactor" : 0.4
			}
		},
		{
			"alphaMode" : "OPAQUE",
			"doubleSided" : true,
			"name" : "BlocksGem",
			"pbrMetallicRoughness" : 
			{
				"baseColorFactor" : 
				[
					1,
					0.4,
					1,
					1
				],
				"metallicFactor" : 0,
				"roughnessFactor" : 0.1
			}
		}
	],
	"meshes" : 
	[
		{
			"name" : "mesh_m0-PolyGlass24_-133484",
			"primitives" : 
			[
				{
					"attributes" : 
					{
						"COLOR_0" : 0,
						"NORMAL" : 4,
						"POSITION" : 6
					},
					"indices" : 2,
					"material" : 1,
					"mode" : 4
				}
			]
		},
		{
			"name" : "mesh_m1-PolyPaper21_-133490",
			"primitives" : 
			[
				{
					"attributes" : 
					{
						"COLOR_0" : 1,
						"NORMAL" : 5,
						"POSITION" : 7
					},
					"indices" : 3,
					"material" : 0,
					"mode" : 4
				}
			]
		}
	],
	"nodes" : 
	[
		{
			"matrix" : 
			[
				1,
				0,
				0,
				0,
				0,
				1,
				0,
				0,
				0,
				0,
				1,
				0,
				0,
				0,
				0,
				1
			],
			"mesh" : 0,
			"name" : "node_MeshObject-1214095360-PolyGlass24"
		},
		{
			"matrix" : 
			[
				1,
				0,
				0,
				0,
				0,
				1,
				0,
				0,
				0,
				0,
				1,
				0,
				0,
				0,
				0,
				1
			],
			"mesh" : 1,
			"name" : "node_MeshObject-642016256-PolyPaper21"
		}
	],
	"scene" : 0,
	"scenes" : 
	[
		{
			"extras" : {},
			"name" : "defaultScene",
			"nodes" : 
			[
				0,
				1
			]
		}
	]
}